<svg width="1059" height="481" viewBox="0 0 1059 481" fill="none" xmlns="http://www.w3.org/2000/svg">
<path d="M1059 0V82.5954C1052.9 93.3867 1048.21 104.734 1045.08 116.393C1030.61 170.387 1032.85 181.368 1004 231.157C985.247 263.531 948.166 286.903 907.387 298.201C866.591 309.498 822.375 309.634 779.916 304.076C745.156 299.542 708.363 291.458 675.925 302.879C646.163 313.341 627.27 338.017 613.808 362.603C600.345 387.177 590.04 413.59 569.319 434.321C535.535 468.156 474.805 480.877 426.006 464.35C399.522 455.385 335.745 482.386 321.537 480.947C298.597 478.618 275.328 467.999 266.909 449.979C258.49 431.959 271.512 407.472 294.472 405.407C308.161 404.173 320.978 410.447 333.921 414.372C346.865 418.317 363.766 419.045 372 409.801C380.316 400.486 374.383 386.827 365.178 378.122C355.968 369.4 343.691 362.76 337.034 352.54C311.315 313.094 387.64 267.287 367.314 225.685C354.288 199.046 311.792 195.133 277.469 196.524C243.146 197.915 201.58 197.446 183.848 172.785C171.88 156.156 176.318 135.145 177.438 115.751C177.623 112.328 177.644 108.679 175.573 105.725C172.111 100.842 164.375 99.6608 157.611 99.3111C136.849 98.2702 115.901 100.422 96.0533 105.618C74.9825 111.131 52.833 120.133 31.9269 114.171C9.27927 107.708 -2.02602 85.1173 0.295969 65.1679C2.62207 45.2185 18.2502 17.1518 30.6342 0H204.215H1059Z" fill="url(#paint0_linear)"/>
<defs>
<linearGradient id="paint0_linear" x1="-0.000455483" y1="240.5" x2="1059" y2="240.5" gradientUnits="userSpaceOnUse">
<stop stop-color="#F4569E"/>
<stop offset="0.2028" stop-color="#F44C97"/>
<stop offset="0.5515" stop-color="#F43084"/>
<stop offset="0.996" stop-color="#F30466"/>
</linearGradient>
</defs>
</svg>
